inDegrees=yes
name=teste1.mot
DataType=double
version=3
OpenSimVersion=4.4-2022-07-23-0e9fedc
endheader
time	q1	q2
6.194612979888916	147.7501539946745	-93.73834090556576
6.198596000671387	147.9276952672076	-93.91588600278868
6.20357608795166	147.9277011131987	-94.79016122627903
6.208581924438477	148.2313596125236	-95.09382903641381
6.213577032089233	148.231362115995	-95.45414449577366
6.219602108001709	148.2313659744957	-96.39886611986338
6.226578950881958	148.3901856158385	-96.55769582229463
6.234605073928833	148.390191572448	-97.44187928941523
6.238595962524414	148.342032260232	-97.3937294152484
6.242578029632568	148.3420381371339	-98.2653973867223
6.251583099365234	148.3291997761137	-98.26115040218687
6.256576061248779	148.3209091413223	-99.17299478555822
6.261580228805542	148.2618737528264	-99.11396932949603
6.272573947906494	148.1893091772604	-99.04140475234264
6.277601003646851	148.1893149996947	-99.88902328554252
6.28259015083313	148.0744501249964	-99.77416767281169
6.290577888488769	148.0744536420009	-100.272710136662
6.298577070236206	148.0744534691491	-100.7432524811237
6.302581071853638	148.0667762826469	-100.7432551275576
6.307575225830078	148.0593083382354	-100.9431714659104
6.317575931549072	148.0593072339298	-101.002290345438
6.323608875274658	148.0593072827091	-101.0679204331476
6.330599069595337	148.1002122929436	-101.1088262379347
6.337579011917114	148.2917626034904	-101.3003765683142
6.343574047088623	148.2917639102777	-101.4758975516281
6.350574970245361	148.3604345116863	-101.5445702474396
6.357571840286255	148.3604398375211	-102.2898341252856
6.361581087112427	148.3604398375211	-102.2898341252856
6.36555814743042	148.3639385641319	-103.0802367643755
6.370609045028686	148.2832142776435	-102.9995214616629
6.374577045440674	148.2832216774712	-104.0317387411293
6.380576133728027	148.0589502020251	-103.8074789055142
6.38557505607605	148.0589575705273	-104.831206380751
6.39357590675354	148.0446856395844	-104.826496045064
6.398569107055664	148.1040884380938	-104.8763489321234
6.408620119094849	148.4033978713725	-105.1756583750834
6.415580987930298	148.4034073171317	-106.463568701364
6.419574022293091	148.5660635867419	-106.6262395606422
6.426568031311035	148.6253122299238	-106.6854881895003
6.433571815490723	148.5926233149179	-106.6527992631705
6.441570043563843	148.4716204667535	-106.5317964035513
6.445579051971435	148.4716216065331	-106.6786843992541
6.452577114105225	148.2746155581581	-106.4816801850358
6.460587024688721	148.2746170316386	-106.6719281285252
6.468571901321411	148.2746197350697	-107.2164908637158
6.472572088241577	147.839618108027	-106.781495879513
6.477575063705444	147.8396201221105	-107.0375821148994
6.487602949142456	147.8396231702231	-107.6886778836389
6.494601964950561	147.6382414450022	-107.4873042540315
6.500572919845581	147.6382466735403	-108.1599347024391
6.505570888519287	147.5927224569079	-108.1144188646858
6.510570049285889	147.5927257856054	-108.5327610994824
6.519572019577026	147.5927283833207	-109.2861822928213
6.52357006072998	147.6048986272643	-109.2902118387238
6.528568983078003	147.6126666280859	-110.8596082531307
6.533596038818359	147.5848157227396	-110.8317759585993
6.538570165634155	147.4848700755687	-110.7318303014168
6.544568061828613	147.279067348646	-110.5260275568659
6.550575017929077	147.2790698279615	-110.8213053683127
6.556571960449219	147.2790765619176	-111.9568200839443
6.561573028564453	147.0671191355454	-111.7448770428539
6.565562009811401	147.0671257067913	-112.536995478695
6.572603940963745	147.0671234832061	-113.0492878695096
6.577574014663696	146.876681145902	-112.8588524942299
6.590567111968994	146.876685712975	-113.3928944678251
6.59856915473938	146.3985878385585	-112.9148038081924
6.603563070297241	146.398591382119	-113.3226716642648
6.60856819152832	146.2197797410516	-113.143865706815
6.613602876663208	146.2197822016401	-113.4233276012148
6.619597911834717	145.8558824915988	-113.0594317963514
6.623569965362549	145.8558863720978	-113.5023143042027
6.628568887710571	145.7437646331015	-113.3901988053673
6.633573055267334	145.7437729854155	-114.3608860179886
